<?xml version="1.0" encoding="UTF-8" standalone="no"?>
<svg
   viewBox="0 0 1000 200"
   version="1.1"
   id="svg4"
   xml:space="preserve"
   xmlns="http://www.w3.org/2000/svg"
   xmlns:svg="http://www.w3.org/2000/svg"><defs
     id="defs8" /><g
     id="g180"><path
       style="fill:#2b922f"
       d="m 156.84921,164.17126 c -2.11788,-2.34023 -2.15482,-9.63659 -0.13267,-26.20112 2.61011,-21.38074 9.36488,-55.201487 12.64331,-63.304267 1.39598,-3.45023 4.31388,-4.66587 11.19947,-4.66587 8.20064,0 9.04611,1.91604 5.63994,12.78144 -3.74079,11.93281 -11.00504,51.044727 -11.00504,59.252937 0,1.83353 0.73001,1.96562 10.86351,1.96562 13.03756,0 19.86914,-1.16632 26.8948,-4.5916 7.59542,-3.70306 10.74169,-8.24742 10.74169,-15.5149 0,-4.99303 -0.38631,-6.16539 -2.89406,-8.78292 C 217.43335,111.59639 210.59545,109 204.70721,109 c -5.73516,0 -7.88173,-1.81147 -7.70538,-6.50252 0.20932,-5.567757 2.21307,-7.164187 9.99727,-7.965037 12.80198,-1.31709 20.95213,-4.20202 26.5344,-9.39246 4.01033,-3.72885 5.66072,-7.35644 5.66072,-12.44244 0,-12.42853 -13.14749,-18.51812 -37.5,-17.36908 -15.32589,0.72314 -28.31439,3.99553 -42.21574,10.63606 -14.13342,6.75139 -17.28426,6.56368 -17.28426,-1.02966 0,-5.38839 2.99626,-8.40339 13.33916,-13.42258 17.22994,-8.36133 36.82574,-12.09075 59.03761,-11.23587 19.97971,0.76896 30.67335,4.42938 38.32056,13.11708 4.57097,5.19289 6.32054,10.14702 6.25878,17.72253 -0.12223,14.99218 -9.53487,24.69805 -30.40545,31.352647 -1.5802,0.50385 -1.01073,1.05641 3.00728,2.91798 9.47926,4.3918 13.34521,11.33981 12.11047,21.76531 -1.59369,13.45618 -12.54534,23.69358 -30.34039,28.36164 -8.08811,2.1217 -24.2435,3.77337 -32.40012,3.31248 -6.40244,-0.36177 -6.85656,-0.24647 -7.38927,1.87604 -1.21892,4.85655 -13.36878,7.35302 -16.88364,3.46914 z m 760.82465,-3.04152 c -6.23962,-2.83447 -8.42322,-9.66643 -4.45196,-13.92907 2.50698,-2.69094 5.59238,-3.51181 11.44898,-3.04601 4.15606,0.33054 4.52334,0.17324 4.52334,-1.93729 0,-2.90103 -2.9816,-8.69247 -6.78742,-13.18382 l -2.93736,-3.46646 -1.76364,3.46646 c -2.38682,4.69129 -10.6985,15.86635 -14.18156,19.0671 -4.46161,4.10001 -13.41925,8.7074 -20.41149,10.49873 -7.27476,1.86371 -15.60584,1.45782 -23.09673,-1.12527 -5.81865,-2.00645 -13.17199,-9.5732 -14.89638,-15.32871 -1.12972,-3.77065 -1.44316,-4.0471 -3.82795,-3.37617 -1.42861,0.40192 -4.62247,0.68939 -7.09747,0.63881 -9.88399,-0.20197 -14.74193,-6.13359 -13.56234,-16.55981 0.55203,-4.87932 0.39207,-5.97634 -0.94636,-6.48994 -4.13468,-1.58663 -13.42986,13.83477 -17.56504,29.14171 -3.0245,11.1956 -4.2625,13.28485 -8.32345,14.04669 -4.42342,0.82984 -7.4119,-0.84553 -9.21776,-5.16756 l -1.44563,-3.45989 -4.29796,3.08656 C 774.22707,157.31545 766.68064,160 761.98563,160 c -6.9837,0 -11.41116,-4.99374 -12.4879,-14.08513 l -0.58952,-4.97761 -3.37409,6.97545 c -3.63809,7.52123 -7.25426,10.87458 -12.67561,11.75434 -4.41835,0.717 -9.23023,-1.81706 -11.83568,-6.23297 l -2.03072,-3.4418 -3.03247,2.55166 c -4.87341,4.1007 -10.32845,6.44142 -16.50311,7.08135 -11.15114,1.1557 -20.2974,-3.17396 -25.25259,-11.95408 l -2.99202,-5.30155 -5.25885,5.06517 c -14.35303,13.82442 -34.67877,16.37922 -48.19981,6.05837 l -4.52556,-3.45444 -5.55233,3.88942 c -9.91063,6.94242 -21.44988,7.84522 -26.94628,2.10822 -4.24723,-4.43316 -4.84903,-10.00079 -2.51976,-23.31178 C 580.75226,118.1927 580.75657,116 578.24223,116 c -3.9531,0 -11.68547,14.27903 -16.51634,30.5 -2.85005,9.56982 -5.7475,13.5 -9.95261,13.5 -3.10102,0 -7.20329,-3.36657 -8.00771,-6.57161 l -0.65337,-2.60323 -3.45266,2.63347 c -14.75908,11.2573 -28.06531,7.34605 -31.53796,-9.27031 -1.49626,-7.15948 -0.0914,-21.39168 3.52288,-35.68832 2.90389,-11.486737 4.53844,-13.499997 10.96051,-13.499997 7.56601,0 7.96702,2.11221 4.00823,21.112477 -5.71485,27.4285 -2.32267,35.52994 9.9979,23.87766 l 5.29718,-5.00985 0.67979,-8.24015 c 0.96864,-11.74159 4.33835,-25.31731 7.07341,-28.496997 1.92032,-2.23251 3.11097,-2.65154 7.65341,-2.69348 5.30463,-0.049 5.38352,-0.006 5.68315,3.07283 0.16711,1.717357 -0.59547,6.667357 -1.69464,10.999997 -1.09917,4.33263 -2.30359,10.35251 -2.67649,13.37751 l -0.67799,5.5 4.5761,-9 c 2.51686,-4.95 6.62149,-11.32197 9.1214,-14.15993 7.89368,-8.961117 19.86088,-13.026957 24.54777,-8.340067 2.76366,2.76366 2.62436,9.894977 -0.5,25.597187 -1.375,6.9104 -2.5,14.23801 -2.5,16.28358 0,7.27416 4.8132,8.17614 11.37143,2.13098 4.24485,-3.91277 4.32911,-4.11634 4.4517,-10.75482 0.16053,-8.69288 2.1823,-15.29554 6.68583,-21.83446 10.50395,-15.251267 30.80297,-18.227677 37.24104,-5.46058 2.66399,5.28287 2.84132,9.51979 0.62975,15.04705 -1.81426,4.53428 -3.82734,5.99106 -8.27882,5.99106 -4.11587,0 -5.21519,-2.32748 -3.93481,-8.33077 1.15335,-5.40771 0.0759,-7.66923 -3.65371,-7.66923 -6.11,0 -11.59681,9.79133 -11.66366,20.81405 -0.0472,7.77719 0.91867,10.73742 4.62843,14.18595 2.31461,2.15163 3.62427,2.4997 9.39851,2.49787 5.87976,-0.002 7.4125,-0.42841 12.39885,-3.45045 3.12934,-1.89658 7.96363,-5.75086 10.74288,-8.56506 l 5.05317,-5.11673 0.21471,-10.07371 0.2147,-10.07372 -5,-0.59137 c -5.46283,-0.64612 -7.5,-2.43759 -7.5,-6.59545 0,-4.866297 2.45342,-6.901717 8.71735,-7.232137 l 5.67293,-0.29924 1.26547,-6.87831 c 2.66629,-14.49232 8.5368,-29.06797 15.41778,-38.2802 4.78546,-6.40674 13.05713,-10.91477 18.24236,-9.94201 6.43551,1.20731 10.68411,8.38087 10.68411,18.03964 0,11.22322 -4.84396,22.92291 -13.35034,32.24526 l -4.85035,5.31562 h 8.9779 c 10.43535,0 12.0928,0.97524 10.5861,6.228817 -1.53017,5.3354 -5.41176,6.80168 -19.80612,7.48181 l -12.55719,0.59332 v 10.66652 c 0,17.73412 3.35575,24.75173 12.31916,25.76204 6.12772,0.69068 10.42502,-0.97478 15.79683,-6.1222 4.45438,-4.26832 4.59369,-4.58673 5.14051,-11.74876 0.61529,-8.05901 4.0202,-22.56217 6.3585,-27.083927 1.64738,-3.18568 4.90568,-4.78536 9.7001,-4.76231 6.26838,0.0301 6.38807,0.53072 3.38818,14.170857 C 732.74316,132.62229 732.46554,140 736.73796,140 c 4.91118,0 11.83947,-12.5393 17.89184,-32.3819 3.33319,-10.927837 5.07069,-12.826397 11.36703,-12.420737 4.40957,0.2841 4.71508,0.48644 4.98662,3.30264 0.15909,1.649997 -1.30341,10.546727 -3.25,19.770507 -1.94659,9.22378 -3.53926,18.47128 -3.53926,20.55 0,7.85012 4.87975,8.29797 12.44586,1.14225 l 5.32614,-5.03725 0.68724,-7.71275 c 1.46045,-16.39054 5.23082,-28.483997 9.58194,-30.734057 3.82123,-1.97603 10.56328,-1.95183 11.32788,0.0407 0.32066,0.83565 -0.50625,6.123147 -1.83758,11.749997 -1.33134,5.62685 -2.6735,12.48064 -2.98259,15.23064 l -0.56197,5 3.02989,-6.40573 c 3.94107,-8.33213 10.90372,-18.03354 15.40861,-21.46958 9.83031,-7.497947 20.39772,-7.451327 21.87387,0.0965 0.29891,1.52835 -0.1084,6.54829 -0.90511,11.15543 -1.50612,8.70938 -1.26527,11.57514 1.04744,12.4626 2.07948,0.79798 5.55838,-0.40268 5.55838,-1.91834 0,-0.74022 0.97318,-3.94692 2.16263,-7.12599 2.85528,-7.63143 11.31572,-16.255597 18.26551,-18.618987 10.31899,-3.50915 20.91793,-0.83269 25.04388,6.324097 4.2816,7.42679 1.90888,19.53605 -5.13044,26.18332 -3.27674,3.09425 -14.29856,8.52661 -19.15155,9.43928 -2.35445,0.44278 -3.14831,1.04373 -2.75,2.08173 0.30799,0.80258 0.55997,1.63588 0.55997,1.85178 0,1.45969 7.34857,3.76704 12,3.76783 15.32317,0.003 28.26288,-12.09332 39.22129,-36.66372 2.7376,-6.13812 5.67921,-11.949617 6.53689,-12.914437 3.51503,-3.95413 15.24182,-4.51577 15.24182,-0.73002 0,0.97118 -0.89012,3.72743 -1.97804,6.124997 -2.87823,6.34306 -2.59368,10.73498 1.03398,15.95872 8.68862,12.5114 10.18847,15.04181 11.00563,18.56775 3.79123,16.35849 -13.61922,31.2596 -28.58193,24.46247 z m -47.79084,-35.68752 c 5.2332,-3.06686 7.7112,-6.5948 7.7112,-10.97848 0,-4.19859 -1.9084,-6.46374 -5.44572,-6.46374 -5.74963,0 -10.76695,6.81114 -12.44732,16.89757 l -0.73262,4.39756 3.29422,-0.65884 c 1.81181,-0.36236 5.24092,-1.79969 7.62024,-3.19407 z M 692.15234,86.429613 c 6.49061,-7.04148 10.44675,-16.34278 10.81602,-25.42961 0.46728,-11.49838 -2.48012,-13.23959 -7.47832,-4.41792 -3.39488,5.99186 -10.25243,34.41792 -8.30304,34.41792 0.41387,0 2.64828,-2.05668 4.96534,-4.57039 z M 84.694211,159.30244 c -16.996392,-2.25426 -32.083705,-12.51981 -38.318246,-26.0721 -4.411007,-9.58839 -5.688119,-19.1673 -4.254324,-31.90933 2.070847,-18.403457 8.299827,-32.552997 19.104909,-43.398067 11.420657,-11.46292 24.647029,-16.54181 40.91899,-15.7128 17.64935,0.8992 26.9007,10.07881 26.99921,26.78986 0.0512,8.68226 -1.3833,13.34492 -5.05651,16.43572 -3.28551,2.76457 -6.73657,3.24272 -10.20977,1.41457 -3.40915,-1.79443 -3.61167,-2.66843 -2.98853,-12.89692 l 0.5853,-9.60729 -3.06083,-3.42304 c -2.99331,-3.34754 -3.23352,-3.42282 -10.89051,-3.41311 -6.786737,0.009 -8.542114,0.40322 -13.178036,2.96246 -9.858755,5.44246 -17.934777,17.02823 -21.279702,30.52761 -0.758959,3.06299 -1.356214,10.595557 -1.347925,16.999997 0.01329,10.26822 0.293412,12.09837 2.615245,17.08648 4.949709,10.63371 12.679982,15.9792 26.132433,18.07061 10.339805,1.60749 22.906195,-0.0557 36.228305,-4.79485 14.03161,-4.99157 16.1483,-5.22824 17.6322,-1.97145 1.88309,4.13294 -0.35682,10.07354 -4.92697,13.06712 -10.75351,7.04385 -38.362,12.01216 -54.705239,9.84453 z M 281.74165,158.9238 c -7.89978,-1.08992 -11.09225,-2.76235 -11.73987,-6.15013 -1.48762,-7.78199 7.26293,-58.865667 13.26197,-77.420347 1.28569,-3.97657 4.95608,-5.56523 11.92363,-5.16092 7.86341,0.45629 7.97952,1.03035 3.73103,18.44637 -4.40803,18.069987 -6.17756,27.215957 -8.27221,42.755457 -1.87581,13.91597 -2.06479,13.57613 7.54802,13.57309 29.63453,-0.009 46.24202,-16.48873 49.47558,-49.093927 1.29767,-13.0849 -2.81172,-25.58142 -10.60625,-32.25325 -13.65892,-11.69152 -40.30906,-10.90635 -63.5574,1.87254 -9.65166,5.30522 -12.31193,4.52654 -12.31193,-3.60379 0,-4.05647 0.43757,-5.0793 3.14901,-7.36083 8.6502,-7.27866 27.20598,-13.22105 44.35099,-14.20317 29.59323,-1.69519 50.78162,11.27135 57.08021,34.93104 2.09473,7.86856 1.81074,25.554897 -0.56978,35.484407 -5.66696,23.63775 -21.99979,40.15596 -45.87478,46.39549 -8.9576,2.34099 -27.26723,3.21193 -37.58822,1.78797 z m 171.20257,-0.89886 c -2.46925,-1.94855 -2.75,-2.80103 -2.75,-8.35019 0,-8.65255 10.53244,-73.010727 14.60203,-89.225227 l 0.68005,-2.70958 -8.83885,0.73628 c -9.84749,0.82029 -18.79238,2.8725 -22.1793,5.08857 -5.6239,3.67971 -7.09013,11.05901 -3.69387,18.59057 l 1.84278,4.08657 -3.22219,2.87904 c -8.25932,7.3797 -16.19065,0.044 -16.19065,-14.97466 0,-16.3334 10.51789,-25.23584 35.32001,-29.89519 11.47727,-2.15613 64.34035,-2.51118 74.17999,-0.49821 9.32941,1.90858 13.11391,7.79747 8.59637,13.3764 -2.2104,2.72973 -2.45439,2.74174 -29.23234,1.43841 l -17.63597,-0.85837 -1.15829,5.39533 c -4.31295,20.08978 -11.68925,66.203507 -13.60821,85.073187 -0.81934,8.05689 -3.11894,10.806 -9.64929,11.53547 -3.39479,0.37922 -4.89736,0.02 -7.06227,-1.6884 z m 66.607,-74.016517 c -3.22864,-1.30292 -5.357,-5.00098 -5.357,-9.30785 0,-7.09379 7.71992,-11.9137 16.45667,-10.27468 8.78521,1.64812 10.29089,13.709 2.31826,18.56991 -3.41302,2.08091 -9.61151,2.5487 -13.41793,1.01262 z"
       id="path184" /></g></svg>
